<svg version="1.1" id="Layer_1" xmlns="http://www.w3.org/2000/svg" xmlns:xlink="http://www.w3.org/1999/xlink" x="0px" y="0px"
	 width="100%" viewBox="0 0 463 464" enable-background="new 0 0 463 464" xml:space="preserve">
<path fill="#001F3F" opacity="1.000000" stroke="none" 
	d="
M463.000000,465.000000 
	C309.642578,465.000000 156.285172,465.000000 2.463660,464.536133 
	C1.993915,310.703247 1.988277,157.334244 2.434835,3.840426 
	C3.552530,3.691117 4.218028,3.645171 4.883526,3.645154 
	C156.103775,3.641211 307.324005,3.639459 458.544250,3.654530 
	C460.029968,3.654678 461.515686,3.878951 462.981812,4.464404 
	C462.955902,98.010010 462.941376,191.089798 462.946259,284.169586 
	C462.949432,344.446381 462.981079,404.723206 463.000000,465.000000 
M201.338791,286.516754 
	C195.223679,285.416870 189.108566,284.317017 182.257141,282.954376 
	C176.843124,281.624573 171.429108,280.294739 165.429871,278.519989 
	C158.833893,276.550751 152.237930,274.581482 144.969055,272.411346 
	C144.969055,275.066803 144.969101,276.864929 144.969055,278.663055 
	C144.968704,292.286255 144.967957,305.909424 144.968063,319.532623 
	C144.968231,339.080078 145.342651,339.564423 164.499161,344.788483 
	C164.654541,344.830841 164.830048,344.799377 165.711044,345.122620 
	C171.423447,346.266663 177.135849,347.410675 183.582428,348.833954 
	C189.715469,349.419952 195.848526,350.005920 202.889816,350.835052 
	C208.594376,350.987518 214.298935,351.139984 220.889648,351.581573 
	C224.928955,351.491638 228.968277,351.401703 233.817764,351.517426 
	C238.238022,351.084290 242.658264,350.651154 247.944748,350.279907 
	C253.007233,349.368042 258.069702,348.456177 263.934601,347.469666 
	C269.956055,344.970795 275.977478,342.471924 282.720062,340.129730 
	C288.818268,335.766968 294.916473,331.404205 301.639618,326.789825 
	C317.642914,311.095459 322.109711,291.575012 320.134644,270.077545 
	C318.674805,254.187393 313.160645,240.053513 300.604004,228.557495 
	C294.795227,224.338867 288.986481,220.120239 282.754395,215.356049 
	C276.166443,211.977676 269.578522,208.599319 262.405334,204.805023 
	C257.290833,202.481537 252.176315,200.158051 246.632706,197.294662 
	C242.321838,196.026764 240.100357,192.616348 239.665756,188.667480 
	C239.217316,184.592972 242.415863,182.410568 246.939407,181.132019 
	C252.293320,181.101807 257.647217,181.071594 263.733154,181.376068 
	C270.486572,182.256668 277.239960,183.137253 284.675232,184.377457 
	C291.786499,185.824280 298.897766,187.271118 306.051514,188.726593 
	C306.334167,188.055908 306.675903,187.622467 306.677094,187.188126 
	C306.731171,167.272995 306.810364,147.357315 306.644196,127.443733 
	C306.634460,126.273895 304.786285,124.376488 303.505463,124.085365 
	C297.050659,122.618225 290.500183,121.571899 283.175171,120.120636 
	C276.448822,119.436539 269.722443,118.752449 262.186249,117.842216 
	C256.789459,117.601295 251.392700,117.360374 245.082153,116.955139 
	C241.053360,117.025383 237.024551,117.095619 232.168259,117.057449 
	C228.110550,117.474060 224.052826,117.890678 219.196152,118.238220 
	C213.749435,119.332550 208.302719,120.426880 202.050827,121.632797 
	C196.344788,123.690826 190.638748,125.748863 184.205780,127.890350 
	C178.100647,131.820786 171.995529,135.751205 165.254776,139.944992 
	C149.141937,153.640976 143.558456,171.538086 144.569656,192.018478 
	C145.444931,209.745743 152.000061,224.767899 166.230331,236.789215 
	C172.048203,241.094055 177.866074,245.398880 184.159149,250.140259 
	C190.375854,253.582596 196.592575,257.024933 203.271652,260.935486 
	C208.474960,264.375305 213.678284,267.815094 219.136444,271.956726 
	C221.955490,276.241364 222.461075,280.478485 218.110825,284.820282 
	C212.754578,285.508484 207.398331,286.196686 201.338791,286.516754 
z"/>
<path fill="#AEB4BA" opacity="1.000000" stroke="none" 
	d="
M463.001404,3.998589 
	C461.515686,3.878951 460.029968,3.654678 458.544250,3.654530 
	C307.324005,3.639459 156.103775,3.641211 4.883526,3.645154 
	C4.218028,3.645171 3.552530,3.691117 2.187359,3.797780 
	C1.325124,3.919964 1.162562,3.959982 1.000000,4.000000 
	C1.048076,2.345619 0.381734,0.116172 3.504963,0.982098 
	C3.969272,1.110829 4.500000,1.000000 5.000000,1.000000 
	C156.666672,1.000000 308.333344,0.994008 459.999939,1.102875 
	C461.252502,1.103775 464.314819,-0.962960 463.750397,3.471637 
	C463.334320,3.961712 463.167877,3.980150 463.001404,3.998589 
z"/>
<path fill="#5B6C7F" opacity="1.000000" stroke="none" 
	d="
M462.981812,4.464403 
	C463.167877,3.980150 463.334320,3.961712 463.750397,3.971637 
	C464.000000,157.666672 464.000000,311.333344 463.500000,465.000000 
	C462.981079,404.723206 462.949432,344.446381 462.946259,284.169586 
	C462.941376,191.089798 462.955902,98.010010 462.981812,4.464403 
z"/>
<path fill="#334A64" opacity="1.000000" stroke="none" 
	d="
M1.000000,4.463884 
	C1.162562,3.959982 1.325124,3.919964 1.735162,3.922593 
	C1.988277,157.334244 1.993915,310.703247 1.999777,464.536133 
	C1.666669,463.668213 1.044089,462.336853 1.042163,461.004578 
	C0.989434,424.538513 1.000000,388.072296 1.000000,351.606140 
	C1.000000,236.046677 1.000000,120.487228 1.000000,4.463884 
z"/>
<path fill="#6896F2" opacity="1.000000" stroke="none" 
	d="
M246.004440,181.101822 
	C242.415863,182.410568 239.217316,184.592972 239.665756,188.667480 
	C240.100357,192.616348 242.321838,196.026764 246.835281,198.029358 
	C246.786331,202.738998 246.318665,206.714142 246.322281,210.688843 
	C246.335037,224.708633 246.526306,238.728180 246.617142,252.748016 
	C246.693008,264.457520 246.716690,276.167328 246.775391,287.876953 
	C246.822556,297.287323 246.896881,306.697571 246.942200,316.107941 
	C246.996964,327.477936 247.033875,338.847992 247.078522,350.218018 
	C242.658264,350.651154 238.238022,351.084290 233.410690,350.991028 
	C233.000992,272.698364 232.998367,194.932114 232.995758,117.165855 
	C237.024551,117.095619 241.053360,117.025383 245.540115,117.494133 
	C246.000198,139.056030 246.002319,160.078918 246.004440,181.101822 
z"/>
<path fill="#699FF2" opacity="1.000000" stroke="none" 
	d="
M232.582001,117.111649 
	C232.998367,194.932114 233.000992,272.698364 233.005600,350.888214 
	C228.968277,351.401703 224.928955,351.491638 220.445282,351.014526 
	C220.000381,331.633057 220.050903,312.818329 219.948975,294.004425 
	C219.932053,290.878265 219.250504,287.755768 218.876083,284.631561 
	C222.461075,280.478485 221.955490,276.241364 219.171692,271.203064 
	C219.471344,267.819824 219.963898,265.190399 219.966339,262.560547 
	C220.010971,214.476166 219.996811,166.391724 219.995117,118.307289 
	C224.052826,117.890678 228.110550,117.474060 232.582001,117.111649 
z"/>
<path fill="#677FF1" opacity="1.000000" stroke="none" 
	d="
M262.990570,205.220947 
	C269.578522,208.599319 276.166443,211.977676 282.739258,215.985489 
	C282.482788,218.910553 282.033600,221.205948 282.031036,223.501831 
	C281.987427,262.325562 281.999298,301.149292 281.998932,339.973053 
	C275.977478,342.471924 269.956055,344.970795 263.510071,347.001282 
	C263.053894,299.428894 263.022247,252.324921 262.990570,205.220947 
z"/>
<path fill="#6AA9F3" opacity="1.000000" stroke="none" 
	d="
M219.595642,118.272751 
	C219.996811,166.391724 220.010971,214.476166 219.966339,262.560547 
	C219.963898,265.190399 219.471344,267.819824 219.044266,270.852173 
	C213.678284,267.815094 208.474960,264.375305 203.172256,260.342163 
	C203.136063,254.805695 203.223724,249.862686 203.258102,244.919312 
	C203.383438,226.906387 203.548355,208.893448 203.586960,190.880280 
	C203.617767,176.509476 203.540588,162.137802 203.406998,147.767487 
	C203.325668,139.017776 203.046371,130.269913 202.856003,121.521210 
	C208.302719,120.426880 213.749435,119.332550 219.595642,118.272751 
z"/>
<path fill="#688CF2" opacity="1.000000" stroke="none" 
	d="
M262.697937,205.012985 
	C263.022247,252.324921 263.053894,299.428894 263.108887,347.038605 
	C258.069702,348.456177 253.007233,349.368042 247.511627,350.248962 
	C247.033875,338.847992 246.996964,327.477936 246.942200,316.107941 
	C246.896881,306.697571 246.822556,297.287323 246.775391,287.876953 
	C246.716690,276.167328 246.693008,264.457520 246.617142,252.748016 
	C246.526306,238.728180 246.335037,224.708633 246.322281,210.688843 
	C246.318665,206.714142 246.786331,202.738998 247.049835,198.299316 
	C252.176315,200.158051 257.290833,202.481537 262.697937,205.012985 
z"/>
<path fill="#6BB5F3" opacity="1.000000" stroke="none" 
	d="
M202.453415,121.577003 
	C203.046371,130.269913 203.325668,139.017776 203.406998,147.767487 
	C203.540588,162.137802 203.617767,176.509476 203.586960,190.880280 
	C203.548355,208.893448 203.383438,226.906387 203.258102,244.919312 
	C203.223724,249.862686 203.136063,254.805695 202.941071,260.108063 
	C196.592575,257.024933 190.375854,253.582596 184.098785,249.489899 
	C184.357132,246.887024 184.951965,244.934769 184.953705,242.981995 
	C184.987961,204.590332 184.953323,166.198608 184.932709,127.806892 
	C190.638748,125.748863 196.344788,123.690826 202.453415,121.577003 
z"/>
<path fill="#6672F0" opacity="1.000000" stroke="none" 
	d="
M282.359497,340.051392 
	C281.999298,301.149292 281.987427,262.325562 282.031036,223.501831 
	C282.033600,221.205948 282.482788,218.910553 282.950928,216.258270 
	C288.986481,220.120239 294.795227,224.338867 300.628143,229.188477 
	C300.452911,235.593674 300.087799,241.367905 300.087097,247.142151 
	C300.085327,261.209717 300.201172,275.277893 300.367004,289.344666 
	C300.515198,301.911041 300.793701,314.475891 301.014679,327.041412 
	C294.916473,331.404205 288.818268,335.766968 282.359497,340.051392 
z"/>
<path fill="#6BC2F3" opacity="1.000000" stroke="none" 
	d="
M184.569244,127.848618 
	C184.953323,166.198608 184.987961,204.590332 184.953705,242.981995 
	C184.951965,244.934769 184.357132,246.887024 183.861191,249.271622 
	C177.866074,245.398880 172.048203,241.094055 166.128754,236.066086 
	C166.351608,232.044083 166.946320,228.746094 166.957291,225.446182 
	C167.037506,201.318634 167.056152,177.190445 166.950546,153.063095 
	C166.931015,148.601151 166.260483,144.142059 165.890411,139.681641 
	C171.995529,135.751205 178.100647,131.820786 184.569244,127.848618 
z"/>
<path fill="#6BCDF2" opacity="1.000000" stroke="none" 
	d="
M165.572601,139.813324 
	C166.260483,144.142059 166.931015,148.601151 166.950546,153.063095 
	C167.056152,177.190445 167.037506,201.318634 166.957291,225.446182 
	C166.946320,228.746094 166.351608,232.044083 165.977127,235.774841 
	C152.000061,224.767899 145.444931,209.745743 144.569656,192.018478 
	C143.558456,171.538086 149.141937,153.640976 165.572601,139.813324 
z"/>
<path fill="#646EEE" opacity="1.000000" stroke="none" 
	d="
M283.983307,120.377876 
	C290.500183,121.571899 297.050659,122.618225 303.505463,124.085365 
	C304.786285,124.376488 306.634460,126.273895 306.644196,127.443733 
	C306.810364,147.357315 306.731171,167.272995 306.677094,187.188126 
	C306.675903,187.622467 306.334167,188.055908 306.051514,188.726593 
	C298.897766,187.271118 291.786499,185.824280 284.336487,183.727844 
	C283.992920,162.178116 283.988129,141.278000 283.983307,120.377876 
z"/>
<path fill="#6364ED" opacity="1.000000" stroke="none" 
	d="
M301.327148,326.915619 
	C300.793701,314.475891 300.515198,301.911041 300.367004,289.344666 
	C300.201172,275.277893 300.085327,261.209717 300.087097,247.142151 
	C300.087799,241.367905 300.452911,235.593674 300.787170,229.485413 
	C313.160645,240.053513 318.674805,254.187393 320.134644,270.077545 
	C322.109711,291.575012 317.642914,311.095459 301.327148,326.915619 
z"/>
<path fill="#6BCEF1" opacity="1.000000" stroke="none" 
	d="
M164.996155,344.802368 
	C164.830048,344.799377 164.654541,344.830841 164.499161,344.788483 
	C145.342651,339.564423 144.968231,339.080078 144.968063,319.532623 
	C144.967957,305.909424 144.968704,292.286255 144.969055,278.663055 
	C144.969101,276.864929 144.969055,275.066803 144.969055,272.411346 
	C152.237930,274.581482 158.833893,276.550751 165.568771,279.131897 
	C165.472260,282.036652 165.039185,284.328888 165.032547,286.622406 
	C164.976303,306.015594 164.997910,325.409027 164.996155,344.802368 
z"/>
<path fill="#677EF1" opacity="1.000000" stroke="none" 
	d="
M283.579224,120.249252 
	C283.988129,141.278000 283.992920,162.178116 283.995544,183.548035 
	C277.239960,183.137253 270.486572,182.256668 263.446838,180.830750 
	C263.186432,172.727081 263.255402,165.168579 263.228729,157.610397 
	C263.182220,144.429611 263.076813,131.249023 262.996094,118.068352 
	C269.722443,118.752449 276.448822,119.436539 283.579224,120.249252 
z"/>
<path fill="#6BB6F3" opacity="1.000000" stroke="none" 
	d="
M201.981567,350.591919 
	C195.848526,350.005920 189.715469,349.419952 183.242676,348.189819 
	C182.933090,326.102844 182.963272,304.660004 182.993454,283.217133 
	C189.108566,284.317017 195.223679,285.416870 201.682297,287.176849 
	C202.011063,308.755280 201.996323,329.673584 201.981567,350.591919 
z"/>
<path fill="#6BC3F3" opacity="1.000000" stroke="none" 
	d="
M182.625305,283.085754 
	C182.963272,304.660004 182.933090,326.102844 182.875580,348.050201 
	C177.135849,347.410675 171.423447,346.266663 165.353607,344.962494 
	C164.997910,325.409027 164.976303,306.015594 165.032547,286.622406 
	C165.039185,284.328888 165.472260,282.036652 165.861389,279.354370 
	C171.429108,280.294739 176.843124,281.624573 182.625305,283.085754 
z"/>
<path fill="#6AAAF3" opacity="1.000000" stroke="none" 
	d="
M202.435699,350.713501 
	C201.996323,329.673584 202.011063,308.755280 202.033936,287.360901 
	C207.398331,286.196686 212.754578,285.508484 218.493454,284.725922 
	C219.250504,287.755768 219.932053,290.878265 219.948975,294.004425 
	C220.050903,312.818329 220.000381,331.633057 220.002197,350.869995 
	C214.298935,351.139984 208.594376,350.987518 202.435699,350.713501 
z"/>
<path fill="#688CF1" opacity="1.000000" stroke="none" 
	d="
M262.591187,117.955284 
	C263.076813,131.249023 263.182220,144.429611 263.228729,157.610397 
	C263.255402,165.168579 263.186432,172.727081 263.080811,180.663422 
	C257.647217,181.071594 252.293320,181.101807 246.471924,181.116913 
	C246.002319,160.078918 246.000198,139.056030 245.997009,117.576294 
	C251.392700,117.360374 256.789459,117.601295 262.591187,117.955284 
z"/>
</svg>